<svg width="1066" height="757" viewBox="0 0 1066 757" fill="none" xmlns="http://www.w3.org/2000/svg">
<path d="M692.053 16.355L773.878 250.053H846.095L869.651 158.309C872.44 146.841 873.06 135.064 873.99 122.976H876.78L903.435 250.053H977.512L1059.96 16.355H971.623L948.067 114.607C944.967 127.935 943.418 142.192 942.178 155.83H940.318L908.394 16.355H843.306L818.51 112.748C814.791 126.695 812.931 141.572 811.381 155.83H809.522L780.077 16.355H692.053Z" fill="white"/>
<path fill-rule="evenodd" clip-rule="evenodd" d="M686.592 12.4805H783.219L809.677 137.808C810.915 129.063 812.498 120.259 814.762 111.766L840.302 12.4805H911.482L940.169 137.812C941.175 129.711 942.469 121.574 944.293 113.729L944.299 113.704L968.567 12.4805H1065.43L980.253 253.927H900.289L876.467 140.355C875.825 146.68 874.931 152.996 873.415 159.225L873.41 159.249L849.1 253.927H771.13L686.592 12.4805ZM873.682 127.08C873.768 125.913 873.855 124.743 873.945 123.57C873.96 123.372 873.975 123.174 873.99 122.976H876.78L903.435 250.053H977.512L1059.96 16.3548H971.623L948.067 114.607C945.459 125.819 943.949 137.689 942.797 149.294C942.594 151.337 942.402 153.373 942.218 155.395C942.204 155.54 942.191 155.685 942.178 155.83H940.318L908.394 16.3548H843.306L818.51 112.747C815.353 124.589 813.535 137.1 812.11 149.333C811.872 151.374 811.646 153.407 811.425 155.428C811.411 155.562 811.396 155.696 811.381 155.83H809.522L780.077 16.3548H692.053L773.878 250.053H846.095L869.651 158.309C872.118 148.168 872.888 137.785 873.676 127.16C873.678 127.133 873.68 127.106 873.682 127.08Z" fill="#FD642D"/>
<path d="M640.309 12.6353C569.332 12.6353 511.062 60.3666 511.062 133.823C511.062 208.83 569.022 253.772 640.309 253.772C711.596 253.772 769.556 208.83 769.556 133.823C769.556 60.3666 711.286 12.6353 640.309 12.6353ZM640.309 89.5014C667.274 89.5014 684.011 110.268 684.011 135.063C684.011 161.718 666.035 180.005 640.309 180.005C614.584 180.005 596.607 161.718 596.607 135.063C596.607 110.268 613.344 89.5014 640.309 89.5014Z" fill="white"/>
<path fill-rule="evenodd" clip-rule="evenodd" d="M507.188 133.824C507.188 57.8565 567.583 8.76123 640.309 8.76123C713.036 8.76123 773.43 57.8565 773.43 133.824C773.43 172.401 758.491 203.46 734.226 224.833C710.015 246.158 676.748 257.646 640.309 257.646C603.871 257.646 570.604 246.158 546.393 224.833C522.128 203.46 507.188 172.401 507.188 133.824ZM680.137 135.063C680.137 112.061 664.804 93.376 640.309 93.376C615.815 93.376 600.482 112.061 600.482 135.063C600.482 147.503 604.662 157.728 611.585 164.825C618.501 171.915 628.395 176.131 640.309 176.131C652.224 176.131 662.118 171.915 669.034 164.825C675.957 157.728 680.137 147.503 680.137 135.063ZM511.063 133.824C511.063 60.3669 569.332 12.6355 640.309 12.6355C711.287 12.6355 769.556 60.3669 769.556 133.824C769.556 208.83 711.597 253.772 640.309 253.772C569.022 253.772 511.063 208.83 511.063 133.824ZM684.012 135.063C684.012 110.268 667.275 89.5017 640.309 89.5017C613.344 89.5017 596.607 110.268 596.607 135.063C596.607 161.719 614.584 180.005 640.309 180.005C666.035 180.005 684.012 161.719 684.012 135.063Z" fill="#FD642D"/>
<path d="M439.373 250.053H595.584V175.046H524.297V16.355H439.373V250.053Z" fill="white"/>
<path fill-rule="evenodd" clip-rule="evenodd" d="M435.498 253.927V12.4805H528.171V171.172H599.458V253.927H435.498ZM595.584 175.046V250.053H439.372V16.3548H524.297V175.046H595.584Z" fill="#FD642D"/>
<path d="M324.636 250.053H480.848V175.046H409.561V16.355H324.636V250.053Z" fill="white"/>
<path fill-rule="evenodd" clip-rule="evenodd" d="M320.762 253.927V12.4805H413.435V171.172H484.722V253.927H320.762ZM480.848 175.046V250.053H324.636V16.3548H409.561V175.046H480.848Z" fill="#FD642D"/>
<path d="M99.3069 265.964L180.822 398.93V499.662H263.887V398.93L343.853 265.964H248.39L231.653 305.017C228.554 312.146 226.384 319.584 223.904 327.023H221.425L195.39 265.964H99.3069Z" fill="white"/>
<path fill-rule="evenodd" clip-rule="evenodd" d="M92.3872 262.09H197.949L222.346 319.306C224.055 314.039 225.844 308.661 228.096 303.481C228.097 303.478 228.099 303.475 228.1 303.472L245.835 262.09H350.704L267.761 400.005V503.536H176.948V400.023L92.3872 262.09ZM180.822 398.93V499.662H263.887V398.93L343.853 265.964H248.39L231.653 305.017C229.27 310.497 227.437 316.16 225.59 321.866C225.281 322.82 224.972 323.776 224.66 324.732C224.544 325.085 224.428 325.438 224.312 325.792C224.177 326.202 224.041 326.612 223.904 327.023H221.425L195.389 265.964H99.3068L180.822 398.93Z" fill="#FD642D"/>
<path d="M399.102 262.244C328.125 262.244 269.855 309.976 269.855 383.433C269.855 458.439 327.815 503.381 399.102 503.381C470.389 503.381 528.349 458.439 528.349 383.433C528.349 309.976 470.079 262.244 399.102 262.244ZM399.102 339.111C426.067 339.111 442.804 359.877 442.804 384.672C442.804 411.328 424.827 429.614 399.102 429.614C373.377 429.614 355.4 411.328 355.4 384.672C355.4 359.877 372.137 339.111 399.102 339.111Z" fill="white"/>
<path fill-rule="evenodd" clip-rule="evenodd" d="M265.981 383.433C265.981 307.466 326.376 258.37 399.102 258.37C471.829 258.37 532.223 307.466 532.223 383.433C532.223 422.01 517.284 453.069 493.019 474.442C468.807 495.767 435.541 507.255 399.102 507.255C362.663 507.255 329.397 495.767 305.185 474.442C280.921 453.069 265.981 422.01 265.981 383.433ZM438.93 384.673C438.93 361.67 423.596 342.985 399.102 342.985C374.608 342.985 359.274 361.67 359.274 384.673C359.274 397.112 363.455 407.338 370.377 414.434C377.294 421.524 387.188 425.74 399.102 425.74C411.017 425.74 420.911 421.524 427.827 414.434C434.749 407.338 438.93 397.112 438.93 384.673ZM269.856 383.433C269.856 309.976 328.125 262.245 399.102 262.245C470.079 262.245 528.349 309.976 528.349 383.433C528.349 458.439 470.389 503.381 399.102 503.381C327.815 503.381 269.856 458.439 269.856 383.433ZM442.804 384.673C442.804 359.877 426.067 339.111 399.102 339.111C372.137 339.111 355.4 359.877 355.4 384.673C355.4 411.328 373.377 429.614 399.102 429.614C424.828 429.614 442.804 411.328 442.804 384.673Z" fill="#FD642D"/>
<path d="M609.691 265.964V396.141C609.691 414.427 609.071 430.544 586.445 430.544C563.819 430.544 563.199 414.427 563.199 396.141V265.964H478.274V404.199C478.274 472.387 521.047 503.381 586.445 503.381C651.843 503.381 694.615 472.387 694.615 404.199V265.964H609.691Z" fill="white"/>
<path fill-rule="evenodd" clip-rule="evenodd" d="M605.817 262.09H698.49V404.199C698.49 439.141 687.497 465.122 667.585 482.294C647.771 499.383 619.692 507.255 586.445 507.255C553.199 507.255 525.12 499.383 505.306 482.294C485.394 465.122 474.401 439.141 474.401 404.199V262.09H567.074V396.14C567.074 405.516 567.301 413.167 569.841 418.545C571.032 421.066 572.705 422.998 575.147 424.352C577.647 425.738 581.227 426.67 586.445 426.67C591.664 426.67 595.244 425.738 597.744 424.352C600.186 422.998 601.859 421.066 603.05 418.545C605.59 413.167 605.817 405.516 605.817 396.14V262.09ZM609.691 396.14C609.691 414.427 609.071 430.544 586.445 430.544C563.82 430.544 563.2 414.427 563.2 396.14V265.964H478.275V404.199C478.275 472.387 521.047 503.381 586.445 503.381C651.844 503.381 694.616 472.387 694.616 404.199V265.964H609.691V396.14Z" fill="#FD642D"/>
<path d="M699.47 499.662H782.535V424.655H784.085L821.278 499.662H919.221L868.39 423.726C863.741 416.907 858.472 413.188 854.133 409.778V407.919C885.747 397.38 899.384 382.503 899.384 347.169C899.384 288.28 854.752 265.964 802.062 265.964H699.47V499.662ZM782.535 329.813H789.044C803.612 329.813 816.319 331.982 816.319 349.959C816.319 367.316 802.372 369.485 788.424 369.485H782.535V329.813Z" fill="white"/>
<path fill-rule="evenodd" clip-rule="evenodd" d="M695.597 503.536V262.09H802.062C828.867 262.09 854.116 267.753 872.765 281.353C891.604 295.091 903.259 316.609 903.259 347.169C903.259 365.306 899.761 378.833 891.671 389.222C884.493 398.441 874.041 404.741 860.45 409.802C863.976 412.636 867.975 416.239 871.592 421.543L871.61 421.57L926.477 503.536H818.876L786.41 438.064V503.536H695.597ZM782.536 424.655H784.086L821.279 499.662H919.221L868.391 423.725C864.435 417.924 860.031 414.366 856.132 411.334C855.921 411.17 855.711 411.007 855.503 410.845C855.324 410.707 855.147 410.569 854.971 410.432C854.688 410.212 854.409 409.995 854.133 409.778V407.918C854.806 407.694 855.471 407.468 856.128 407.239C856.37 407.155 856.611 407.07 856.851 406.986C886.531 396.496 899.385 381.473 899.385 347.169C899.385 288.28 854.753 265.964 802.062 265.964H699.471V499.662H782.536V424.655ZM789.045 333.687H786.41V365.611H788.425C795.381 365.611 801.501 365.031 805.819 362.791C807.879 361.723 809.465 360.307 810.567 358.396C811.681 356.465 812.446 353.779 812.446 349.959C812.446 345.909 811.729 343.054 810.669 341.013C809.63 339.014 808.156 337.587 806.257 336.527C802.229 334.279 796.349 333.687 789.045 333.687ZM782.536 329.812V369.485H788.425C802.372 369.485 816.32 367.316 816.32 349.959C816.32 331.982 803.612 329.812 789.045 329.812H782.536Z" fill="#FD642D"/>
<path d="M238.132 12.6353C167.155 12.6353 108.885 60.3666 108.885 133.823C108.885 208.83 166.845 253.772 238.132 253.772C309.419 253.772 367.379 208.83 367.379 133.823C367.379 60.3666 309.109 12.6353 238.132 12.6353ZM238.132 89.5014C265.097 89.5014 281.834 110.268 281.834 135.063C281.834 161.718 263.857 180.005 238.132 180.005C212.407 180.005 194.43 161.718 194.43 135.063C194.43 110.268 211.167 89.5014 238.132 89.5014Z" fill="white"/>
<path fill-rule="evenodd" clip-rule="evenodd" d="M105.011 133.824C105.011 57.8565 165.406 8.76123 238.132 8.76123C310.859 8.76123 371.253 57.8565 371.253 133.824C371.253 172.401 356.314 203.46 332.049 224.833C307.838 246.158 274.571 257.646 238.132 257.646C201.694 257.646 168.427 246.158 144.216 224.833C119.951 203.46 105.011 172.401 105.011 133.824ZM277.96 135.063C277.96 112.061 262.627 93.376 238.132 93.376C213.638 93.376 198.305 112.061 198.305 135.063C198.305 147.503 202.485 157.728 209.408 164.825C216.324 171.915 226.218 176.131 238.132 176.131C250.047 176.131 259.941 171.915 266.857 164.825C273.78 157.728 277.96 147.503 277.96 135.063ZM108.886 133.824C108.886 60.3669 167.155 12.6355 238.132 12.6355C309.11 12.6355 367.379 60.3669 367.379 133.824C367.379 208.83 309.42 253.772 238.132 253.772C166.845 253.772 108.886 208.83 108.886 133.824ZM281.835 135.063C281.835 110.268 265.098 89.5017 238.132 89.5017C211.167 89.5017 194.43 110.268 194.43 135.063C194.43 161.719 212.407 180.005 238.132 180.005C263.858 180.005 281.835 161.719 281.835 135.063Z" fill="#FD642D"/>
<path d="M8.07959 237.572H93.6242V155.747H155.923V94.9981H93.6242V70.8224H164.601V3.87451H8.07959V237.572Z" fill="white"/>
<path fill-rule="evenodd" clip-rule="evenodd" d="M4.20557 241.446V0H168.476V74.6965H97.4987V91.1236H159.797V159.621H97.4987V241.446H4.20557ZM93.6244 237.572H8.07987V3.8743H164.602V70.8222H93.6244V94.9979H155.923V155.747H93.6244V237.572Z" fill="#FD642D"/>
<path d="M5.52612 515.573L87.3514 749.271H159.568L183.124 657.528C185.914 646.06 186.533 634.282 187.463 622.194H190.253L216.908 749.271H290.985L373.43 515.573H285.096L261.54 613.826C258.441 627.153 256.891 641.411 255.651 655.048H253.791L221.867 515.573H156.779L131.983 611.966C128.264 625.913 126.404 640.791 124.855 655.048H122.995L93.5503 515.573H5.52612Z" fill="white"/>
<path fill-rule="evenodd" clip-rule="evenodd" d="M0.0646973 511.699H96.692L123.15 637.027C124.388 628.281 125.972 619.477 128.235 610.984L153.775 511.699H224.955L253.642 637.031C254.648 628.93 255.942 620.793 257.766 612.948L257.772 612.922L282.04 511.699H378.905L293.726 753.145H213.762L189.94 639.574C189.298 645.898 188.404 652.214 186.889 658.443L186.883 658.467L162.574 753.145H84.603L0.0646973 511.699ZM187.155 626.298C187.242 625.131 187.328 623.961 187.418 622.788C187.433 622.59 187.448 622.392 187.463 622.194H190.253L216.908 749.271H290.985L373.43 515.573H285.096L261.54 613.825C258.933 625.037 257.422 636.907 256.27 648.512C256.067 650.556 255.875 652.591 255.691 654.613C255.677 654.758 255.664 654.903 255.651 655.048H253.791L221.867 515.573H156.779L131.983 611.966C128.826 623.807 127.008 636.318 125.583 648.552C125.345 650.592 125.119 652.625 124.898 654.646C124.884 654.78 124.869 654.914 124.855 655.048H122.995L93.5503 515.573H5.52613L87.3514 749.271H159.568L183.124 657.527C185.591 647.387 186.361 637.004 187.149 626.378C187.151 626.352 187.153 626.325 187.155 626.298Z" fill="#FD642D"/>
<path d="M385.681 720.136H449.84L457.588 749.271H547.472L464.097 515.573H370.184L288.979 749.271H378.863L385.681 720.136ZM400.869 664.656L416.366 593.369H419.465C421.015 603.287 422.565 613.516 425.044 623.434L434.962 664.656H400.869Z" fill="white"/>
<path fill-rule="evenodd" clip-rule="evenodd" d="M457.588 749.271L449.84 720.136H385.681L378.862 749.271H288.979L370.184 515.573H464.097L547.472 749.271H457.588ZM388.753 724.01L381.935 753.145H283.531L367.429 511.699H466.828L552.968 753.145H454.61L446.861 724.01H388.753ZM400.868 664.656H434.962L425.044 623.434C422.757 614.286 421.261 604.875 419.827 595.686C419.779 595.381 419.732 595.077 419.684 594.773C419.647 594.537 419.611 594.302 419.574 594.066C419.538 593.834 419.501 593.601 419.465 593.369H416.366L400.868 664.656ZM405.675 660.782H430.045L421.285 624.373C421.284 624.368 421.283 624.362 421.281 624.357C419.769 618.304 418.598 612.147 417.57 606.064L405.675 660.782Z" fill="#FD642D"/>
<path d="M482.637 731.604C508.982 744.931 543.076 752.99 572.52 752.99C623.041 752.99 673.872 725.405 673.872 669.615C673.872 629.942 647.837 610.726 611.883 602.667L592.667 598.328C586.158 596.778 575.62 595.538 575.62 586.86C575.62 577.252 586.468 574.462 593.907 574.462C612.193 574.462 628.62 582.211 643.188 592.129L666.124 532.31C643.188 518.362 618.702 511.854 592.047 511.854C541.216 511.854 490.695 542.848 490.695 598.328C490.695 634.901 518.59 654.428 551.754 660.317L568.801 663.416C576.55 664.966 587.708 665.896 587.708 676.434C587.708 686.972 574.38 690.381 566.012 690.381C546.485 690.381 528.198 680.773 513.011 668.995L508.672 665.586L482.637 731.604Z" fill="white"/>
<path fill-rule="evenodd" clip-rule="evenodd" d="M477.737 733.467L506.976 659.326L515.385 665.934C515.388 665.936 515.392 665.939 515.395 665.941C530.287 677.489 547.735 686.507 566.012 686.507C569.787 686.507 574.58 685.721 578.277 683.888C581.914 682.086 583.833 679.681 583.833 676.434C583.833 674.531 583.346 673.32 582.718 672.462C582.053 671.555 581.023 670.762 579.53 670.069C576.988 668.89 573.955 668.327 570.67 667.716C569.82 667.559 568.954 667.398 568.075 667.222L551.077 664.132C551.074 664.131 551.071 664.131 551.069 664.13C533.998 661.098 517.982 654.509 506.171 643.686C494.263 632.773 486.821 617.717 486.821 598.328C486.821 569.273 500.102 546.565 519.939 531.221C539.693 515.942 565.896 507.979 592.047 507.979C619.379 507.979 644.566 514.667 668.136 529L670.898 530.679L645.053 598.086L641.007 595.332C626.734 585.614 611.08 578.337 593.906 578.337C590.56 578.337 586.667 578.981 583.765 580.494C581.022 581.923 579.494 583.884 579.494 586.86C579.494 588.17 579.866 589.016 580.392 589.674C580.977 590.404 581.922 591.103 583.323 591.749C585.6 592.797 588.226 593.373 590.974 593.975C591.821 594.161 592.679 594.349 593.542 594.554C593.549 594.556 593.557 594.558 593.564 594.559L612.731 598.887C612.731 598.887 612.73 598.887 612.731 598.887C631.095 603.003 647.363 610.057 659.07 621.517C670.887 633.084 677.746 648.837 677.746 669.615C677.746 698.856 664.357 720.821 644.424 735.355C624.607 749.804 598.422 756.865 572.52 756.865C542.473 756.865 507.78 748.666 480.888 735.061L477.737 733.467ZM611.883 602.667L592.667 598.328C591.958 598.16 591.202 597.995 590.417 597.823C583.989 596.421 575.62 594.594 575.62 586.86C575.62 577.252 586.468 574.463 593.906 574.463C610.822 574.463 626.146 581.092 639.879 589.937C640.992 590.654 642.095 591.386 643.188 592.129L666.123 532.31C643.188 518.363 618.702 511.854 592.047 511.854C541.216 511.854 490.695 542.848 490.695 598.328C490.695 634.902 518.59 654.428 551.754 660.317L568.801 663.416C569.55 663.566 570.331 663.71 571.131 663.858C578.603 665.236 587.708 666.915 587.708 676.434C587.708 686.972 574.38 690.382 566.012 690.382C546.485 690.382 528.198 680.773 513.011 668.995L508.672 665.586L482.637 731.604C508.982 744.932 543.076 752.99 572.52 752.99C623.041 752.99 673.872 725.405 673.872 669.615C673.872 629.943 647.837 610.726 611.883 602.667Z" fill="#FD642D"/>
<path d="M647.26 591.51L694.062 589.34V749.271H778.986V589.34L825.788 591.51V515.573H647.26V591.51Z" fill="white"/>
<path fill-rule="evenodd" clip-rule="evenodd" d="M643.386 595.567V511.699H829.663V595.567L782.861 593.398V753.145H690.188V593.398L643.386 595.567ZM694.062 589.34V749.271H778.987V589.34L825.789 591.509V515.573H647.261V591.509L694.062 589.34Z" fill="#FD642D"/>
<path d="M811.489 749.271H971.11V685.423H897.033V662.487H962.432V601.738H897.033V579.422H968.63V515.573H811.489V749.271Z" fill="white"/>
<path fill-rule="evenodd" clip-rule="evenodd" d="M807.614 753.145V511.699H972.504V583.296H900.907V597.863H966.306V666.361H900.907V681.548H974.984V753.145H807.614ZM971.11 685.422V749.271H811.489V515.573H968.63V579.421H897.033V601.737H962.431V662.487H897.033V685.422H971.11Z" fill="#FD642D"/>
</svg>
