<svg width="171" height="32" viewBox="0 0 171 32" fill="none" xmlns="http://www.w3.org/2000/svg">
<rect x="19.8525" y="9.60451" width="130.97" height="13.097" fill="white" fill-opacity="0.25"/>
<path d="M169.165 13.0835C170.619 14.5376 170.619 16.8953 169.165 18.3494L157.18 30.3348C154.834 32.6805 150.823 31.0192 150.823 27.7018L150.823 3.73106C150.823 0.413682 154.834 -1.24766 157.18 1.09808L169.165 13.0835Z" fill="white" fill-opacity="0.75"/>
<circle cx="85.7741" cy="16.153" r="6.54849" fill="white" fill-opacity="0.5"/>
<circle cx="126.812" cy="16.153" r="6.54849" fill="white" fill-opacity="0.5"/>
<circle cx="44.7379" cy="16.153" r="6.54849" fill="white" fill-opacity="0.5"/>
<path d="M1.73515 18.3494C0.280991 16.8953 0.280993 14.5376 1.73515 13.0835L13.7205 1.09808C16.0663 -1.24766 20.0771 0.413694 20.0771 3.73107V27.7018C20.0771 31.0192 16.0663 32.6806 13.7205 30.3348L1.73515 18.3494Z" fill="white" fill-opacity="0.75"/>
</svg>
