<svg width="500" height="500" viewBox="0 0 500 500" fill="none" xmlns="http://www.w3.org/2000/svg">
<g clip-path="url(#clip0)">
<path fill-rule="evenodd" clip-rule="evenodd" d="M142.815 44.9576C169.096 17.3719 208.044 0 258.223 0C313.212 0 349.189 26.0217 369.762 57.3302C388.793 86.2921 394 118.369 394 135.938C394 162.433 390.455 212.865 344.569 249.899C335.687 257.066 326.767 263.676 318.994 269.435L318.813 269.569C310.693 275.585 304.119 280.468 298.631 284.992C295.128 287.88 292.763 290.067 291.214 291.649V360.553C291.214 382.061 273.682 399.497 252.056 399.497C230.429 399.497 212.898 382.061 212.898 360.553V285C212.898 268.239 220.428 255.186 226.851 246.779C233.35 238.272 241.452 230.961 248.651 225.027C255.843 219.097 263.961 213.082 271.497 207.499L272.025 207.108C280.014 201.189 287.725 195.466 295.221 189.417C312.512 175.462 315.684 156.407 315.684 135.938C315.684 130.024 313.183 113.604 304.204 99.9403C296.768 88.623 284.435 77.8894 258.223 77.8894C227.201 77.8894 209.616 88.0839 199.665 98.5297C188.956 109.77 184.316 124.202 184.316 135.938C184.316 157.446 166.784 174.882 145.158 174.882C123.532 174.882 106 157.446 106 135.938C106 105.813 117.292 71.7484 142.815 44.9576ZM288.955 294.259C288.952 294.259 288.983 294.209 289.057 294.105C288.994 294.207 288.957 294.259 288.955 294.259ZM254.211 421.273C275.837 421.273 293.368 438.709 293.368 460.218V461.055C293.368 482.564 275.837 500 254.211 500C232.584 500 215.053 482.564 215.053 461.055V460.218C215.053 438.709 232.584 421.273 254.211 421.273Z" fill="white" stroke="white" stroke-linecap="round" stroke-linejoin="round"/>
</g>
<defs>
<clipPath id="clip0">
<rect width="500" height="500" fill="white"/>
</clipPath>
</defs>
</svg>
